# xmcd
#
# Track frame offsets:
# 187
# 11897
# 30585
# 44112
# 60247
# 73817
# 88452
# 103152
# 118277
# 129577
#
# Disc length: 1928 seconds
#
#
# Revision: 4
# Processed by: cddbd v1.5.2PL0 Copyright (c) Steve Scherf et al.
# Submitted via: FreeRIP 2.96 
#
DISCID=9707860a
DTITLE=Johnny Gimble - Still Fiddlin' Around - Still Fiddlin' Around
DYEAR=1988
DGENRE=Texas Dance Hall
TTITLE0=Foolin' Around
TTITLE1=Nellie Gray
TTITLE2=Mandolopin
TTITLE3=Blue Again
TTITLE4=Quick Step Annie
TTITLE5=Have A Nice Day
TTITLE6=New Grey Bonnet
TTITLE7=Rural Ruffin'
TTITLE8=Gardenia Waltz
TTITLE9=Pretty Palomino
EXTD=
EXTT0=
EXTT1=
EXTT2=
EXTT3=
EXTT4=
EXTT5=
EXTT6=
EXTT7=
EXTT8=
EXTT9=
PLAYORDER=
